<svg preserveAspectRatio="none" overflow="visible" style="display: block;" width="10.3611" height="19.4204" viewBox="0 0 10.3611 19.4204" fill="none" xmlns="http://www.w3.org/2000/svg">
<path id="Vector" d="M7.7665 13.829C8.62656 15.6759 9.45487 17.4513 10.3611 19.3992C9.2211 19.3992 8.33506 19.4349 7.45769 19.3724C7.25277 19.3576 7.00457 19.0423 6.89201 18.8074C6.31768 17.6149 5.73757 16.4193 5.24405 15.1911C4.99007 14.5547 4.63796 14.3138 3.99725 14.409C3.72307 14.4506 3.43446 14.4149 3.08524 14.4149C3.08524 15.8573 3.05638 17.2104 3.09679 18.5635C3.11699 19.197 2.95248 19.4765 2.29445 19.4111C1.74609 19.3576 1.18907 19.3754 0.637826 19.4081C0.155847 19.4349 -0.0202059 19.2148 0.00576903 18.7568C0.00576903 18.733 0.00576903 18.7063 0.00576903 18.6825C0.00576903 12.7108 0.00865831 6.73623 0 0.764588C0 0.187646 0.213571 -0.00863263 0.770589 0.00028915C2.66964 0.0270545 4.56581 -0.00863263 6.46487 0.0181327C8.46205 0.044898 9.70885 1.27908 9.74925 3.34596C9.79832 5.78755 9.781 8.23212 9.75502 10.6767C9.74059 12.0833 9.22109 13.2224 7.7665 13.829V13.829ZM3.13142 2.80767V11.6551C4.06074 11.6551 4.94389 11.6848 5.82704 11.6432C6.34365 11.6194 6.66112 11.2834 6.66112 10.7183C6.66112 8.37189 6.6669 6.02546 6.65535 3.67904C6.65535 3.11994 6.34365 2.81362 5.79241 2.81065C4.92946 2.8047 4.06652 2.81065 3.13142 2.81065V2.80767Z" fill="#DA2760"/>
</svg>
