<svg preserveAspectRatio="none" overflow="visible" style="display: block;" width="107.127" height="24.7216" viewBox="0 0 107.127 24.7216" fill="none" xmlns="http://www.w3.org/2000/svg">
<g id="Frame 2">
<path id="Vector" fill-rule="evenodd" clip-rule="evenodd" d="M0.000300063 12.3867C0.000300063 10.234 0.000300063 8.07561 0.000300063 5.91721C0.000640088 5.40173 0.0433913 4.88725 0.12807 4.3796C0.424385 2.71554 1.48732 1.68089 3.10482 1.60329C4.47758 1.5257 5.85329 1.5257 7.22606 1.60329C8.92511 1.69526 10.0288 2.81613 10.2164 4.59516C10.317 5.56658 10.2844 6.55812 10.3007 7.54104C10.3007 7.94341 10.1675 8.19632 9.72435 8.21931C9.10429 8.2529 8.48634 8.32101 7.87306 8.42337C7.38917 8.50097 7.22334 8.27104 7.22334 7.80832C7.22334 7.08119 7.23693 6.35407 7.22334 5.62981C7.19343 4.78772 6.91615 4.48019 6.13594 4.45433C5.53787 4.42846 4.93437 4.42846 4.33902 4.45433C3.52347 4.49169 3.22715 4.82508 3.21084 5.68441C3.18909 6.78804 3.21084 7.8888 3.21084 8.98955V18.5572C3.21084 20.0632 3.42832 20.2816 4.87999 20.2816C5.34486 20.2816 5.80972 20.2816 6.27458 20.2615C6.40321 20.2703 6.53212 20.2496 6.65248 20.2008C6.77284 20.1521 6.8818 20.0764 6.97191 19.9789C7.06202 19.8815 7.13114 19.7646 7.17453 19.6363C7.21793 19.508 7.23458 19.3712 7.22334 19.2355C7.22334 18.5055 7.24237 17.7812 7.22334 17.0541C7.22334 16.5483 7.38101 16.2752 7.9084 16.258C8.52549 16.235 9.14531 16.0999 9.76241 16.0913C9.94183 16.0913 10.2789 16.0194 10.2789 16.5023C10.3174 17.8817 10.2574 19.2623 10.0995 20.6323C9.89018 22.0693 8.80822 23.035 7.41091 23.1097C5.90696 23.1988 4.39946 23.1988 2.8955 23.1097C1.15838 22.9947 0.0573904 21.506 0.0193315 19.2815C-0.0241644 16.9822 0.0193315 14.683 0.0193315 12.3838L0.000300063 12.3867Z" fill="#FF6D1D"/>
<path id="Vector_2" fill-rule="evenodd" clip-rule="evenodd" d="M22.6614 5.93689C22.6636 5.43902 22.6296 4.94174 22.5596 4.44967C22.3131 2.7885 21.2442 1.67525 19.6825 1.59408C18.2252 1.5245 16.7572 1.5332 15.2999 1.59408C14.1855 1.65496 13.2398 2.22318 12.8353 3.3886C12.5485 4.22406 12.3962 5.10659 12.3853 5.99777C12.3451 11.3843 12.3665 16.7707 12.3665 22.1601V22.5863C12.3665 22.9892 12.5433 23.1806 12.9371 23.1661C13.5666 23.1458 14.2042 23.1371 14.8337 23.1661C15.3079 23.1893 15.4365 22.9516 15.4338 22.4877V17.739L19.5191 16.2895V19.2204C19.5191 20.2873 19.5191 21.3339 19.503 22.3717C19.4896 23.0066 19.6932 23.2212 20.2611 23.169C20.7594 23.1313 21.263 23.169 21.7639 23.169C22.6506 23.169 22.6614 23.1545 22.6614 22.163C22.6614 16.7514 22.6614 11.3398 22.6614 5.92819V5.93689ZM15.4284 14.6254V5.92819C15.4284 4.73957 15.6963 4.46416 16.7679 4.45836C17.376 4.45836 17.9868 4.45836 18.5975 4.48445C18.7195 4.47866 18.8411 4.50102 18.9545 4.55005C19.0678 4.59907 19.1702 4.67365 19.2548 4.7688C19.3394 4.86396 19.4044 4.97753 19.4453 5.10195C19.4863 5.22637 19.5023 5.3588 19.4923 5.49043C19.5057 7.92565 19.4923 10.3667 19.4923 12.8483V13.1875L15.4284 14.6254Z" fill="#FF6D1D"/>
<path id="Vector_3" fill-rule="evenodd" clip-rule="evenodd" d="M34.841 20.6209C34.7473 21.3146 34.4292 21.9485 33.9445 22.4073C33.4599 22.866 32.8408 23.1191 32.1999 23.1205C30.684 23.1952 29.1629 23.1952 27.647 23.1205C26.9424 23.1095 26.2666 22.8133 25.7499 22.2892C25.2331 21.7651 24.912 21.0501 24.8486 20.2822C24.7332 19.2433 24.762 18.1843 24.7227 17.1253C24.7043 16.6863 24.9168 16.4854 25.2971 16.4481C25.9134 16.3849 26.5297 16.3304 27.146 16.2558C27.5735 16.2012 27.7178 16.4251 27.7178 16.8642C27.7178 17.6362 27.7178 18.4053 27.7178 19.1802C27.7178 19.8661 28.0456 20.2334 28.6567 20.2535C29.4225 20.2822 30.1962 20.2966 30.9647 20.2535C31.6465 20.2162 31.956 19.8948 31.9665 19.1572C31.998 17.6802 31.998 16.206 31.9665 14.7347C31.9665 13.9742 31.6151 13.6327 30.9174 13.6126C30.0388 13.581 29.1629 13.5896 28.2948 13.6126C26.3802 13.6557 25.0505 12.4073 24.9587 10.3008C24.8696 8.45671 24.8696 6.60879 24.9587 4.76474C25.061 2.82757 26.1757 1.68536 27.9407 1.59065C29.2436 1.52463 30.5487 1.53038 31.8511 1.60787C32.5555 1.61286 33.2329 1.90545 33.7505 2.42833C34.2681 2.95122 34.5887 3.66672 34.6495 4.43471C34.7505 5.3871 34.7795 6.34699 34.736 7.3046C34.7151 7.7523 34.4108 7.84413 34.1958 7.89579C33.6109 8.02494 33.0051 8.01059 32.4124 8.09668C31.956 8.16556 31.7803 7.97041 31.7855 7.49114C31.7855 6.8368 31.7855 6.1796 31.7855 5.52526C31.7855 4.87093 31.4866 4.50071 30.907 4.47201C30.2238 4.43183 29.5392 4.43183 28.856 4.47201C28.2449 4.50645 27.946 4.91685 27.9433 5.5884C27.9433 6.89994 27.9433 8.20861 27.9433 9.51441C27.9433 10.3409 28.279 10.7025 29.0422 10.7255C30.1726 10.7599 31.3187 10.6624 32.4307 10.8403C34.0253 11.09 34.8593 12.1834 34.9642 13.9455C35.0245 14.95 35.0088 15.9544 35.0088 16.9675C35.0505 18.1777 34.9953 19.3896 34.8436 20.5893" fill="#FF6D1D"/>
<path id="Vector_4" fill-rule="evenodd" clip-rule="evenodd" d="M47.5266 1.5451H45.8251C45.1468 1.5451 44.9555 1.76987 44.9728 2.42083C44.9728 3.72275 44.9728 8.48965 44.9728 13.0785L40.4944 14.5526C40.4944 9.61934 40.4944 4.04385 40.4944 2.63976C40.4944 1.57721 40.4944 1.57721 39.4682 1.57721C39.019 1.57721 38.5725 1.57721 38.1204 1.57721C37.0884 1.57721 37.0855 1.57721 37.0855 2.59889V20.9484C37.0855 21.4271 37.1058 21.9 37.0855 22.3787C37.0536 22.9626 37.2624 23.2107 37.8653 23.1727H39.7755C40.3552 23.1727 40.5089 22.9801 40.506 22.4225C40.506 21.6606 40.506 19.8829 40.506 17.6848L44.9989 16.1961C44.9989 19.0539 44.9989 21.468 44.9989 22.3729C44.9989 22.9363 45.1497 23.164 45.77 23.164C46.5613 23.164 47.115 23.164 47.4715 23.164C48.3933 23.164 48.4107 23.1406 48.4107 22.1861C48.4107 16.7624 48.4107 11.3358 48.4107 5.90624C48.4107 4.76487 48.3846 3.6235 48.4107 2.48213C48.4368 1.81658 48.2628 1.55677 47.5411 1.55677" fill="#FF6D1D"/>
<path id="Vector_5" fill-rule="evenodd" clip-rule="evenodd" d="M53.5922 13.7381V14.7401C53.5922 17.3137 53.5922 19.8902 53.5922 22.4608C53.5922 22.972 53.46 23.2057 52.9682 23.1736C52.3442 23.1444 51.7175 23.1531 51.0935 23.1736C50.6467 23.1911 50.4537 22.9749 50.4748 22.4959C50.4748 22.3761 50.4748 22.2563 50.4748 22.1395V2.60833C50.4748 1.54793 50.4748 1.54793 51.4531 1.54793H52.487C53.6979 1.54793 53.5816 1.42524 53.5842 2.79529C53.5842 5.13225 53.5842 7.46921 53.5842 9.80617V10.6183C54.1897 10.8023 54.5731 10.7702 54.8692 10.034C55.9269 7.3845 57.0902 4.77586 58.1928 2.14678C58.2521 1.95656 58.3688 1.79467 58.5233 1.68828C58.6779 1.5819 58.8609 1.5375 59.0415 1.56254C59.6867 1.58883 60.3345 1.56254 60.9849 1.56254C61.5772 1.56254 61.6433 1.69984 61.3577 2.36003C60.6333 4.03388 59.8903 5.69896 59.1552 7.36697C58.5418 8.75454 57.9496 10.1567 57.3044 11.5268C57.2139 11.7066 57.1691 11.9101 57.1747 12.1158C57.1803 12.3215 57.2361 12.5217 57.3361 12.6952C58.7727 15.891 60.1917 19.0956 61.5931 22.3089C61.9447 23.1006 61.8998 23.1561 61.1277 23.1561C60.5011 23.1561 59.8771 23.1356 59.2531 23.1561C59.0496 23.1835 58.8438 23.1332 58.6697 23.0137C58.4956 22.8942 58.3637 22.7125 58.2959 22.4988C57.1405 19.7587 55.9559 17.0391 54.8322 14.2844C54.5678 13.6271 54.2373 13.4927 53.5816 13.7206" fill="#0036DA"/>
<path id="Vector_6" fill-rule="evenodd" clip-rule="evenodd" d="M74.1646 5.93689C74.1682 5.43897 74.1341 4.94157 74.0627 4.44967C73.8163 2.7885 72.7446 1.67525 71.188 1.59408C69.7279 1.5245 68.2623 1.5332 66.8049 1.59408C65.685 1.65496 64.7419 2.22318 64.3374 3.3886C64.0514 4.22422 63.9 5.10675 63.8899 5.99777C63.8498 11.3843 63.8685 16.7707 63.8685 22.1601C63.8685 22.2993 63.8685 22.45 63.8685 22.5863C63.8685 22.9892 64.0453 23.1806 64.4365 23.1661C65.0688 23.1458 65.7037 23.1371 66.3387 23.1661C66.8102 23.1893 66.9362 22.9516 66.9335 22.4877V17.739L71.0192 16.2895V19.2204C71.0192 20.2873 71.0192 21.3339 71.0031 22.3717C71.0031 23.0066 71.1934 23.2212 71.7587 23.169C72.2597 23.1313 72.7633 23.169 73.267 23.169C74.1485 23.169 74.1619 23.1545 74.1619 22.163C74.1619 16.7514 74.1619 11.3398 74.1619 5.92819L74.1646 5.93689ZM66.9281 14.6254V5.92819C66.9281 4.73957 67.1826 4.46416 68.2677 4.45836C68.8759 4.45836 69.4894 4.45836 70.0976 4.48445C70.2196 4.47871 70.3414 4.50108 70.4549 4.55008C70.5683 4.59908 70.6709 4.6736 70.7557 4.7687C70.8406 4.86381 70.9058 4.97732 70.9471 5.10175C70.9883 5.22617 71.0047 5.35865 70.9951 5.49043C70.9951 7.92565 70.9951 10.3667 70.9951 12.8483V13.1875L66.9281 14.6254Z" fill="#0036DA"/>
<path id="Vector_7" fill-rule="evenodd" clip-rule="evenodd" d="M79.5759 17.5297C79.5759 19.1693 79.5388 20.7184 79.593 22.2558C79.6186 22.9982 79.3622 23.2349 78.6726 23.1648C78.1911 23.1151 77.701 23.1648 77.2109 23.1648C76.2249 23.1648 76.2249 23.1648 76.2249 22.1155V2.53299C76.2249 1.5451 76.2249 1.5451 77.2023 1.5451H83.2688C85.6424 1.5451 87.03 2.86911 87.0842 5.30085C87.1355 7.98687 87.1298 10.6846 87.0842 13.3764C87.0528 14.9693 86.4687 16.2992 84.7818 16.9188C85.1038 17.6057 85.3831 18.2224 85.6794 18.8362C86.2493 20.0053 86.8192 21.1744 87.3691 22.3435C87.6997 23.0449 87.6284 23.1443 86.8505 23.1501C84.2575 23.1852 84.2575 23.1852 83.1462 20.7622C82.7359 19.8591 82.3057 18.9648 81.9238 18.0528C81.8719 17.8705 81.7554 17.7147 81.5973 17.6157C81.4392 17.5168 81.2508 17.482 81.069 17.518C80.6074 17.5531 80.1429 17.518 79.5702 17.518L79.5759 17.5297ZM79.6215 4.50001V14.5602C80.6615 14.5602 81.6531 14.5602 82.6476 14.5602C83.3457 14.5602 83.7247 14.1773 83.7304 13.4495C83.7503 10.819 83.7475 8.21484 83.7304 5.59897C83.7304 5.05533 83.5081 4.55554 82.9268 4.52339C81.8241 4.46494 80.7157 4.50586 79.6158 4.50586" fill="#0036DA"/>
<path id="Vector_8" fill-rule="evenodd" clip-rule="evenodd" d="M99.9038 12.3593C99.9038 14.562 99.9194 16.7618 99.9038 18.9645C99.8983 19.5702 99.8213 20.1727 99.6747 20.7565C99.5368 21.4261 99.197 22.0242 98.711 22.453C98.2249 22.8819 97.6213 23.116 96.999 23.1171C95.747 23.1889 94.4977 23.1803 93.2483 23.1688C90.8928 23.143 89.7423 21.9196 89.6408 19.3062C89.594 18.1115 89.6278 16.9169 89.6252 15.7222C89.6252 12.4483 89.6018 9.17153 89.6408 5.89765C89.6522 5.10538 89.7779 4.32016 90.013 3.57147C90.4061 2.31935 91.33 1.69042 92.4935 1.61575C93.7949 1.53534 95.1224 1.53534 96.4368 1.55832C98.683 1.59852 99.8725 2.91382 99.9038 5.41805C99.9324 7.73562 99.9038 10.0503 99.9038 12.365V12.3593ZM96.8428 12.3593C96.8428 10.1336 96.8428 7.9108 96.8428 5.68514C96.8428 4.82359 96.5409 4.48758 95.7757 4.45025C95.2551 4.42153 94.7137 4.43589 94.1853 4.45025C92.9204 4.45025 92.6835 4.70584 92.6835 6.07571C92.6835 8.62589 92.6835 11.178 92.6835 13.732C92.6835 15.4178 92.6835 17.1035 92.6835 18.7893C92.6835 19.9754 92.9646 20.2712 94.0526 20.2826C94.5419 20.2826 95.0313 20.2826 95.518 20.2826C96.5591 20.2683 96.8428 19.9725 96.848 18.8295C96.848 16.6775 96.848 14.5246 96.848 12.3708" fill="#0036DA"/>
</g>
</svg>
