<svg preserveAspectRatio="none" overflow="visible" style="display: block;" width="17.5003" height="17.5001" viewBox="0 0 17.5003 17.5001" fill="none" xmlns="http://www.w3.org/2000/svg">
<g id="Group">
<path id="Vector" d="M13.7503 6.75C15.4071 6.75 16.7503 5.40685 16.7503 3.75C16.7503 2.09315 15.4071 0.75 13.7503 0.75C12.0934 0.75 10.7503 2.09315 10.7503 3.75C10.7503 5.40685 12.0934 6.75 13.7503 6.75Z" stroke="#171B22" stroke-width="1.5" stroke-linecap="round" stroke-linejoin="round"/>
<path id="Vector_2" d="M3.75028 16.75C5.40714 16.75 6.75028 15.4069 6.75028 13.75C6.75028 12.0931 5.40714 10.75 3.75028 10.75C2.09343 10.75 0.750285 12.0931 0.750285 13.75C0.750285 15.4069 2.09343 16.75 3.75028 16.75Z" stroke="#171B22" stroke-width="1.5" stroke-linecap="round" stroke-linejoin="round"/>
<path id="Vector_3" d="M10.75 10.7501H16.75V15.7501C16.75 16.0153 16.6446 16.2697 16.4571 16.4572C16.2696 16.6447 16.0152 16.7501 15.75 16.7501H11.75C11.4848 16.7501 11.2304 16.6447 11.0429 16.4572C10.8554 16.2697 10.75 16.0153 10.75 15.7501V10.7501ZM0.75 0.750081H6.75V5.75008C6.75 6.0153 6.64464 6.26965 6.45711 6.45719C6.26957 6.64472 6.01522 6.75008 5.75 6.75008H1.75C1.48478 6.75008 1.23043 6.64472 1.04289 6.45719C0.855357 6.26965 0.75 6.0153 0.75 5.75008V0.750081Z" stroke="#171B22" stroke-width="1.5" stroke-linecap="round" stroke-linejoin="round"/>
</g>
</svg>
